<svg width="479" height="162" viewBox="0 0 479 162" fill="none" xmlns="http://www.w3.org/2000/svg">
<!-- <g filter="url(#filter0_d_2_3)"> -->
<path d="M5 68.008C33.1532 72.8993 57.1765 58.9757 108 18.008L16 136.008C56.5217 82.8816 67.9911 52.0673 153 3.00798C176.985 2.38151 155.104 38.6294 98 122.008C68.244 155.633 52.3905 160.229 26 136.008M145 116.008C132.201 101.835 122.772 111.958 108 136.008C103.869 150.242 123.153 140.16 149.5 118.508L138.5 143.508C151.728 143.228 160.671 138.509 180.5 118.508C174.697 127.675 172.449 131.258 169.5 136.008C187.05 119.519 196.703 106.43 206 116.008C211.761 116.719 208.679 123.404 202.5 136.008C215.259 134.724 222.876 130.613 238 112.008C246.021 106.16 237.496 116.771 222 136.008C259.135 141.782 295.52 95.7351 296 100.508C302.965 88.7203 278.814 93.3329 251 128.008C253.915 146.344 260.834 143.669 275.5 136.008C351.622 92.5616 391.963 68.5142 431 30.008C427.345 24.6918 435.012 12.9763 357 74.508L312.5 124.008C298.623 149.385 304.014 151.96 342.5 131.008C404.956 87.8456 424.098 74.9173 470 43.508C474.628 33.701 475.096 29.8979 392 90.008C379.477 101.536 375.694 108.181 368.5 120.008C358.451 137.594 363.637 139.402 388.5 131.008C400.573 127.409 410.213 121.726 431 107.008C428.67 98.2127 424.922 96.2685 396 120.008C386.976 135.908 393.932 137.238 416 133.508C442.203 127.342 452.136 118.635 467.5 100.508M300.5 69.508C266.985 73.8909 258.698 76.7293 263 82.508" stroke="white" stroke-width="5" shape-rendering="crispEdges"/>
</g>
<defs>
<filter id="filter0_d_2_3" x="0.572052" y="0.500009" width="477.572" height="161.263" filterUnits="userSpaceOnUse" color-interpolation-filters="sRGB">
<feFlood flood-opacity="0" result="BackgroundImageFix"/>
<feColorMatrix in="SourceAlpha" type="matrix" values="0 0 0 0 0 0 0 0 0 0 0 0 0 0 0 0 0 0 127 0" result="hardAlpha"/>
<feOffset dy="4"/>
<feGaussianBlur stdDeviation="2"/>
<feComposite in2="hardAlpha" operator="out"/>
<feColorMatrix type="matrix" values="0 0 0 0 0 0 0 0 0 0 0 0 0 0 0 0 0 0 0.25 0"/>
<feBlend mode="normal" in2="BackgroundImageFix" result="effect1_dropShadow_2_3"/>
<feBlend mode="normal" in="SourceGraphic" in2="effect1_dropShadow_2_3" result="shape"/>
</filter>
</defs>
</svg>
